<?xml version="1.0" standalone="no"?>
<!DOCTYPE svg PUBLIC "-//W3C//DTD SVG 20010904//EN"
 "http://www.w3.org/TR/2001/REC-SVG-20010904/DTD/svg10.dtd">
<svg version="1.0" xmlns="http://www.w3.org/2000/svg"
 width="700.000000pt" height="700.000000pt" viewBox="0 0 700.000000 700.000000"
 preserveAspectRatio="xMidYMid meet">
<metadata>
Created by potrace 1.14, written by Peter Selinger 2001-2017
</metadata>
<g transform="translate(0.000000,700.000000) scale(0.100000,-0.100000)"
fill="#000000" stroke="none">
<path d="M1997 5884 c-1 -1 -120 -4 -264 -6 l-261 -4 -39 -29 c-91 -70 -95
-83 -109 -415 -13 -304 -7 -618 16 -750 5 -30 11 -71 14 -90 3 -19 8 -48 11
-65 3 -16 8 -39 9 -50 21 -114 97 -361 144 -465 13 -30 31 -71 40 -90 84 -187
226 -386 388 -546 139 -137 256 -219 459 -322 199 -100 491 -183 730 -208 39
-4 79 -8 90 -10 11 -1 28 -3 38 -3 16 -1 17 -50 17 -881 l0 -880 -547 0 c-302
-1 -566 -3 -588 -7 -61 -8 -116 -50 -147 -112 -42 -83 -34 -165 24 -236 41
-49 70 -62 168 -71 47 -4 665 -8 1375 -9 l1290 -1 45 22 c55 27 83 56 109 114
23 51 26 83 10 145 -14 54 -82 126 -135 143 -26 8 -206 11 -597 12 -309 0
-562 2 -564 4 -3 2 -3 1329 -1 1694 0 28 3 54 7 56 6 4 30 8 156 21 260 29
622 145 818 263 267 161 443 328 603 572 96 147 222 414 249 530 2 8 13 47 25
85 11 39 22 79 24 90 3 11 11 49 19 85 9 36 18 88 22 115 3 28 8 59 10 70 33
150 36 509 9 985 -5 104 -32 162 -92 204 -41 29 -43 29 -209 33 -169 4 -3362
10 -3366 7z m3239 -502 c7 -71 8 -523 0 -557 -2 -11 -5 -23 -5 -27 -1 -8
-3338 -8 -3410 1 -48 5 -55 9 -59 31 -6 33 -5 473 1 530 3 25 5 53 6 62 1 14
13 18 69 20 37 2 815 4 1729 5 l1661 3 8 -68z"/>
</g>
</svg>
